<?xml version="1.0" encoding="utf-8"?>
<!-- Generator: Adobe Illustrator 21.0.2, SVG Export Plug-In . SVG Version: 6.00 Build 0)  -->
<svg version="1.1" id="Logo" xmlns="http://www.w3.org/2000/svg" xmlns:xlink="http://www.w3.org/1999/xlink" x="0px" y="0px"
	 viewBox="0 0 1920 1080" style="enable-background:new 0 0 1920 1080;" xml:space="preserve">
<style type="text/css">
	.st0{fill:transparent;}
	.st1{fill:#37109F;}
</style>
<rect class="st0" width="1920" height="1080"/>
<path class="st1" d="M1547.7,111.6h-35.4v23.8h53.5l-0.9,4.4c-2,10.8-11.6,18.7-22.4,18.7h-30.2v25.6h58.8l-0.9,5
	c-2.1,10.5-11.4,18.1-22,18.1h-63.5v-30.9h-20.6c-8.5,0-18,4.8-21.9,12.4l-10,18.5h-21.7c-1.4,0-2.7-1.2-2.7-2.7
	c0-0.5,0.2-0.9,0.4-1.2l54.4-101.3c4.3-8.2,12.8-13.3,22-13.5h86.4l-0.9,4.6C1568.3,104,1558.7,111.8,1547.7,111.6L1547.7,111.6z
	 M1460.6,154.8h24.2v-42l-0.5,0.4c-1.8,1.6-3.2,3.4-4.3,5.5L1460.6,154.8z M1671,88.5l-0.7,3.9c-2,10.7-11.4,19.4-22.4,19.2h-22.8
	c-2.8,0-5.5,0.2-8.4,0.5c-1.8,0.2-3.6,0.9-5.2,1.8c-1.2,0.9-2.1,2-2.5,3.4c-0.5,1.8-0.7,3.6-0.7,5.3c0,1.6,0.2,3.2,0.4,4.8
	c0.2,1.2,0.9,2.3,1.6,3.2c1.1,1.1,2.1,1.8,3.6,2.3c2,0.7,4.1,1.2,6.2,1.6c0,0,34.1,4.8,44.3,14.2c5.7,5.3,6.8,13.2,6.8,21.3
	c0,9.1,0,14-3.6,20.1c-5,8.4-14.6,16.9-38,16.9h-48.9l0.7-4.6c2-10.8,11.6-18.5,22.4-18.5h20.4c3.4,0,6.6-0.2,10-0.7
	c2-0.2,3.9-0.9,5.7-2c1.2-0.9,2.3-2.1,2.8-3.6c0.5-1.4,0.9-3,0.7-4.6c0-1.8-0.2-3.6-0.4-5.3c-0.2-1.4-0.9-4.4-6.4-5.9
	c-7.8-2-15.8-3.6-23.8-4.6c-5.3-0.9-10.7-2.3-15.8-4.3c-3.7-1.4-6.9-3.7-9.8-6.6c-2.5-2.7-4.1-6-5-9.4c-1.1-4.1-1.4-8.5-1.4-12.8
	v-2.7c0-4.8,0.9-9.6,2.5-14.2c1.6-4.1,4.3-7.8,7.6-10.5c4.1-3.2,8.9-5.3,13.9-6.6c6.9-1.6,14-2.3,21.2-2.3 M1713.3,115.7v91.4
	c-15.1,0-27.4-12.3-27.4-27.4V88.3h0.2C1701.1,88.3,1713.3,100.6,1713.3,115.7L1713.3,115.7L1713.3,115.7z M1822.7,129.4
	c0,8.7-1.8,15.5-5.3,20.6c-3.7,5.2-9.1,9.1-15.3,11.2c-0.2,0-0.4,0.4-0.4,0.5c0,0,0,0,0,0.2l26.1,44.4c0.2,0.2,0,0.5-0.2,0.5h-0.2
	h-29.2c-0.2,0-0.4-0.2-0.4-0.2l-18.1-32.9c-2.8-5.2-8.2-8.4-14-8.4h-8.9c-0.2,0-0.4,0.2-0.4,0.4v41.2h-26.8V115
	c0-14.8,11.9-26.7,26.7-26.7l0,0h21.7c6.9-0.2,13.7,0.5,20.4,2c5,1.1,9.4,3.4,13.3,6.6c3.6,2.8,6.4,6.8,8,11.2
	c1.8,5.3,2.7,11,2.5,16.7L1822.7,129.4z M1794,126.5c0-2.7-0.4-5.2-1.1-7.8c-0.5-2-1.6-3.6-3.2-4.8c-1.8-1.2-3.7-2.1-5.9-2.5
	c-3-0.5-5.9-0.7-8.9-0.7h-11.2c-4.8,0-8.7,3.9-8.7,8.7l0,0V143c0,0.2,0.2,0.4,0.4,0.4h19.7c3,0,5.9-0.2,8.9-0.7
	c2.1-0.4,4.1-1.2,5.7-2.5c1.4-1.2,2.7-3,3.2-5c0.7-2.5,1.1-5.2,1.1-7.8V126.5z M1396.7,225.4l-4.1-20.4c-0.4-1.2,0-2.7,0.5-3.7
	L1455,86.7c5.3-10,7.1-31.5,4.6-32.7c-2.5-1.4-19.6,11.9-24.9,21.9L1373,190.4c-0.7,1.1-1.6,2.1-2.8,2.5l-19.4,7.8
	c-3,1.2-4.4,4.8-3.2,7.8c0.4,0.9,0.9,1.6,1.4,2.1l12.6,13l-2.7,17.1l12.8-11.6l17.8,3.4c3.2,0.7,6.4-1.2,7.1-4.6
	C1396.9,227.2,1396.9,226.3,1396.7,225.4L1396.7,225.4z"/>
</svg>
