<?xml version="1.0" encoding="utf-8"?>
<!-- Generator: Adobe Illustrator 21.0.2, SVG Export Plug-In . SVG Version: 6.00 Build 0)  -->
<svg version="1.1" id="Logo" xmlns="http://www.w3.org/2000/svg" xmlns:xlink="http://www.w3.org/1999/xlink" x="0px" y="0px"
	 viewBox="0 0 114.5 180" style="enable-background:new 0 0 114.5 180;" xml:space="preserve">
<style type="text/css">
	.st0{fill:transparent;}
	.st1{fill:#37109F;}
</style>
<rect class="st0" width="114.5" height="180"/>
<path class="st1" d="M50.7,160.2l-3.7-18.4c-0.3-1.1,0-2.4,0.5-3.4l55.6-102.8c4.8-8.9,6.4-28.3,4.2-29.4
	C105,5.1,89.7,16.9,84.9,25.9l-55.4,103c-0.6,1-1.4,1.9-2.6,2.2l-17.4,7c-2.7,1.1-4,4.3-2.9,7c0.3,0.8,0.8,1.4,1.3,1.9l11.3,11.7
	l-2.4,15.3l11.5-10.4l16,3c2.9,0.6,5.7-1.1,6.4-4.2C50.9,161.6,50.9,161,50.7,160.2L50.7,160.2z"/>
</svg>
