<?xml version="1.0" encoding="utf-8"?>
<!-- Generator: Adobe Illustrator 21.0.2, SVG Export Plug-In . SVG Version: 6.00 Build 0)  -->
<svg version="1.1" id="Logo" xmlns="http://www.w3.org/2000/svg" xmlns:xlink="http://www.w3.org/1999/xlink" x="0px" y="0px"
	 viewBox="0 0 1920 1080" style="enable-background:new 0 0 1920 1080;" xml:space="preserve">
<style type="text/css">
	.st0{fill:transparent;}
	.st1{fill:#ffffff;}
</style>
<rect class="st0" width="1920" height="1080"/>
<path class="st1" d="M870.6,460.1h-79.2v53.3h119.8l-2,10c-4.4,24.3-25.9,41.8-50.2,41.8h-67.7v57.3h131.8l-2,11.1
	c-4.8,23.5-25.5,40.6-49.4,40.6H729.7V605h-46.2c-19.1,0-40.2,10.7-49,27.9l-22.3,41.4h-48.6c-3.2,0-6-2.8-6-6c0-1.2,0.4-2,0.8-2.8
	l121.8-226.9c9.6-18.3,28.7-29.9,49.4-30.3h193.5l-2,10.4C916.8,443,895.3,460.5,870.6,460.1L870.6,460.1z M675.6,556.8h54.1v-94
	l-1.2,0.8c-4,3.6-7.2,7.6-9.6,12.3L675.6,556.8z M1146.9,408.3l-1.6,8.8c-4.4,23.9-25.5,43.4-50.2,43h-51c-6.4,0-12.3,0.4-18.7,1.2
	c-4,0.4-8,2-11.5,4c-2.8,2-4.8,4.4-5.6,7.6c-1.2,4-1.6,8-1.6,11.9c0,3.6,0.4,7.2,0.8,10.7c0.4,2.8,2,5.2,3.6,7.2
	c2.4,2.4,4.8,4,8,5.2c4.4,1.6,9.2,2.8,13.9,3.6c0,0,76.4,10.7,99.1,31.8c12.7,11.9,15.1,29.5,15.1,47.8c0,20.3,0,31.5-8,45
	c-11.1,18.7-32.6,37.8-85.2,37.8H944.7l1.6-10.4c4.4-24.3,25.9-41.4,50.2-41.4h45.8c7.6,0,14.7-0.4,22.3-1.6c4.4-0.4,8.8-2,12.7-4.4
	c2.8-2,5.2-4.8,6.4-8c1.2-3.2,2-6.8,1.6-10.4c0-4-0.4-8-0.8-11.9c-0.4-3.2-2-10-14.3-13.1c-17.5-4.4-35.4-8-53.3-10.4
	c-11.9-2-23.9-5.2-35.4-9.6c-8.4-3.2-15.5-8.4-21.9-14.7c-5.6-6-9.2-13.5-11.1-21.1c-2.4-9.2-3.2-19.1-3.2-28.7v-6
	c0-10.7,2-21.5,5.6-31.8c3.6-9.2,9.6-17.5,17.1-23.5c9.2-7.2,19.9-11.9,31.1-14.7c15.5-3.6,31.5-5.2,47.4-5.2 M1241.7,469.3v204.6
	c-33.8,0-61.3-27.5-61.3-61.3V407.9h0.4C1214.2,407.9,1241.7,435.4,1241.7,469.3L1241.7,469.3L1241.7,469.3z M1486.5,499.9
	c0,19.5-4,34.6-11.9,46.2c-8.4,11.5-20.3,20.3-34.2,25.1c-0.4,0-0.8,0.8-0.8,1.2c0,0,0,0,0,0.4l58.5,99.5c0.4,0.4,0,1.2-0.4,1.2
	h-0.4H1432c-0.4,0-0.8-0.4-0.8-0.4l-40.6-73.7c-6.4-11.5-18.3-18.7-31.5-18.7h-19.9c-0.4,0-0.8,0.4-0.8,0.8v92.4h-60.1V467.7
	c0-33,26.7-59.7,59.7-59.7l0,0h48.6c15.5-0.4,30.7,1.2,45.8,4.4c11.1,2.4,21.1,7.6,29.9,14.7c8,6.4,14.3,15.1,17.9,25.1
	c4,11.9,6,24.7,5.6,37.4L1486.5,499.9z M1422.4,493.5c0-6-0.8-11.5-2.4-17.5c-1.2-4.4-3.6-8-7.2-10.7c-4-2.8-8.4-4.8-13.1-5.6
	c-6.8-1.2-13.1-1.6-19.9-1.6h-25.1c-10.7,0-19.5,8.8-19.5,19.5l0,0v52.9c0,0.4,0.4,0.8,0.8,0.8h44.2c6.8,0,13.1-0.4,19.9-1.6
	c4.8-0.8,9.2-2.8,12.7-5.6c3.2-2.8,6-6.8,7.2-11.1c1.6-5.6,2.4-11.5,2.4-17.5V493.5z M532.7,714.9l-9.2-45.8c-0.8-2.8,0-6,1.2-8.4
	l138.5-256.4c11.9-22.3,15.9-70.5,10.4-73.3c-5.6-3.2-43.8,26.7-55.7,49L479.7,636.5c-1.6,2.4-3.6,4.8-6.4,5.6l-43.4,17.5
	c-6.8,2.8-10,10.7-7.2,17.5c0.8,2,2,3.6,3.2,4.8l28.3,29.1l-6,38.2l28.7-25.9l39.8,7.6c7.2,1.6,14.3-2.8,15.9-10.4
	C533.1,718.9,533.1,716.9,532.7,714.9L532.7,714.9z"/>
</svg>
